<?xml version="1.0" encoding="utf-8"?>
<!-- Generator: Adobe Illustrator 24.2.3, SVG Export Plug-In . SVG Version: 6.00 Build 0)  -->
<svg version="1.1" id="Capa_1" xmlns="http://www.w3.org/2000/svg" xmlns:xlink="http://www.w3.org/1999/xlink" x="0px" y="0px"
	 viewBox="0 0 48.1 48.1" style="enable-background:new 0 0 48.1 48.1;" xml:space="preserve">
<style type="text/css">
	.st0{fill:#6AB32D;}
</style>
<g>
	<polygon class="st0" points="1.3,30.8 5.9,24.2 1.3,17.4 0.5,18.5 4.4,24.2 0.5,29.8 	"/>
	<polygon class="st0" points="8.2,30.8 12.9,24.2 8.2,17.4 7.5,18.5 11.4,24.2 7.5,29.8 	"/>
	<polygon class="st0" points="15.2,30.8 19.8,24.2 15.2,17.4 14.4,18.5 18.3,24.2 14.4,29.8 	"/>
	<polygon class="st0" points="22.1,30.8 26.7,24.2 22.1,17.4 21.3,18.5 25.2,24.2 21.4,29.8 	"/>
	<polygon class="st0" points="29,30.8 33.7,24.2 29,17.4 28.3,18.5 32.2,24.2 28.3,29.8 	"/>
	<polygon class="st0" points="36,30.8 40.6,24.2 36,17.4 35.2,18.5 39.1,24.2 35.2,29.8 	"/>
	<polygon class="st0" points="42.9,30.8 47.5,24.2 42.9,17.4 42.2,18.5 46.1,24.2 42.2,29.8 	"/>
</g>
</svg>
