<?xml version="1.0" encoding="utf-8"?>
<!-- Generator: Adobe Illustrator 24.2.3, SVG Export Plug-In . SVG Version: 6.00 Build 0)  -->
<svg version="1.1" id="Capa_1" xmlns="http://www.w3.org/2000/svg" xmlns:xlink="http://www.w3.org/1999/xlink" x="0px" y="0px"
	 viewBox="0 0 47.5 47.5" style="enable-background:new 0 0 47.5 47.5;" xml:space="preserve">
<style type="text/css">
	.st0{fill:#59595B;}
	.st1{fill:#7DB7C9;}
	.st2{opacity:0.5;}
	.st3{fill:#6AB32D;}
	.st4{fill:#A5A6A9;}
</style>
<g>
	<path class="st0" d="M16.1,21.8l-0.8-1.2l2.4-1.6l0.8,1.2L16.1,21.8z M19.7,19.4l-0.8-1.2l2.4-1.6l0.8,1.2L19.7,19.4z M23.4,17
		l-0.8-1.2l2.4-1.6l0.8,1.2L23.4,17z M27,14.5l-0.8-1.2l2.4-1.6l0.8,1.2L27,14.5z M30.6,12.1l-0.8-1.2l0.3-0.2l0.8,1.2L30.6,12.1z"
		/>
</g>
<g>
	<path class="st0" d="M31.5,35.5l-1-0.6l0.7-1.3l1,0.6L31.5,35.5z M29.3,34.2l-2.5-1.4l0.7-1.3L30,33L29.3,34.2z M25.5,32.1
		l-2.5-1.4l0.7-1.3l2.5,1.4L25.5,32.1z M21.7,29.9l-2.5-1.4l0.7-1.3l2.5,1.4L21.7,29.9z M17.9,27.8l-2.5-1.4l0.7-1.3l2.5,1.4
		L17.9,27.8z"/>
</g>
<g>
	<g>
		<g>
			
				<ellipse transform="matrix(0.1602 -0.9871 0.9871 0.1602 -12.4088 32.8304)" class="st1" cx="13.1" cy="23.7" rx="7.5" ry="7.5"/>
		</g>
		<g class="st2">
			<path class="st3" d="M13.1,31.2c-4.1,0-7.5-3.4-7.5-7.5c0-4.1,3.4-7.5,7.5-7.5V31.2z"/>
		</g>
	</g>
	<g>
		<g>
			<ellipse transform="matrix(0.5257 -0.8507 0.8507 0.5257 8.1167 33.2659)" class="st4" cx="33.9" cy="9.4" rx="6.7" ry="6.7"/>
		</g>
		<g class="st2">
			<path class="st3" d="M33.9,16.1c-3.7,0-6.7-3-6.7-6.7c0-3.7,3-6.7,6.7-6.7V16.1z"/>
		</g>
	</g>
	<g>
		<g>
			<path class="st4" d="M27.5,37c0-3.7,3-6.7,6.7-6.7c3.7,0,6.7,3,6.7,6.7c0,3.7-3,6.7-6.7,6.7C30.5,43.7,27.5,40.7,27.5,37z"/>
		</g>
		<g class="st2">
			<path class="st3" d="M34.2,43.7c-3.7,0-6.7-3-6.7-6.7c0-3.7,3-6.7,6.7-6.7V43.7z"/>
		</g>
	</g>
</g>
</svg>
