<?xml version="1.0" encoding="utf-8"?>
<!-- Generator: Adobe Illustrator 24.2.3, SVG Export Plug-In . SVG Version: 6.00 Build 0)  -->
<svg version="1.1" id="Capa_1" xmlns="http://www.w3.org/2000/svg" xmlns:xlink="http://www.w3.org/1999/xlink" x="0px" y="0px"
	 viewBox="0 0 31.2 29.1" style="enable-background:new 0 0 31.2 29.1;" xml:space="preserve">
<style type="text/css">
	.st0{fill:#6AB32D;}
</style>
<g>
	<path class="st0" d="M21.4,22.5L21.4,22.5c1-0.8,1.7-1.9,2.2-3.1c0.5-1.2,0.8-2.5,0.8-3.9c0-1.6-0.4-3.1-1.1-4.5l-0.1,0
		c0.7,1.4,1.1,2.9,1.1,4.5c0,1.3-0.3,2.6-0.8,3.8C23.1,20.6,22.3,21.6,21.4,22.5z"/>
	<path class="st0" d="M20.2,22.1c-0.8,0.6-1.6,1.1-2.5,1.5c-1,0.4-2,0.5-3,0.5v0.1c1,0,2.1-0.2,3-0.5c0.9-0.3,1.8-0.9,2.6-1.5
		L20.2,22.1z"/>
	<g>
		<g>
			<path class="st0" d="M17.4,7.6l0.2-0.5c0,0-0.1,0-0.1,0l-0.2,0.5C17.4,7.6,17.4,7.6,17.4,7.6z"/>
			<path class="st0" d="M16.9,7.5l0.1-0.5c0,0-0.1,0-0.1,0l-0.1,0.5C16.9,7.4,16.9,7.4,16.9,7.5z"/>
			<path class="st0" d="M19.3,8.5l0.3-0.5c0,0-0.1,0-0.1-0.1L19.3,8.5C19.2,8.5,19.3,8.5,19.3,8.5z"/>
			<path class="st0" d="M18.9,8.3l0.3-0.5c0,0-0.1,0-0.1-0.1L18.9,8.3C18.8,8.2,18.8,8.2,18.9,8.3z"/>
			<path class="st0" d="M17.9,7.8l0.2-0.5c0,0-0.1,0-0.1,0l-0.2,0.5C17.9,7.8,17.9,7.8,17.9,7.8z"/>
			<path class="st0" d="M18.4,8l0.2-0.5c0,0-0.1,0-0.1-0.1L18.3,8C18.3,8,18.4,8,18.4,8z"/>
			<path class="st0" d="M20.5,8.7C20.5,8.7,20.5,8.7,20.5,8.7l-0.5,0.4c0,0,0.1,0,0.1,0.1L20.5,8.7z"/>
			<path class="st0" d="M20.9,9.1C20.9,9.1,20.9,9,20.9,9.1l-0.5,0.3c0,0,0.1,0.1,0.1,0.1L20.9,9.1z"/>
			<path class="st0" d="M16.4,7.3l0.1-0.6c0,0-0.1,0-0.1,0l-0.1,0.6C16.4,7.3,16.4,7.3,16.4,7.3z"/>
			<path class="st0" d="M19.6,8.8C19.7,8.8,19.7,8.8,19.6,8.8l0.4-0.4c0,0-0.1,0-0.1-0.1L19.6,8.8z"/>
		</g>
		<path class="st0" d="M11.1,7.9c1.1-0.5,2.3-0.8,3.6-0.8c0.4,0,0.8,0,1.2,0.1L16,6.7c-0.4-0.1-0.8-0.1-1.3-0.1
			c-1.3,0-2.6,0.3-3.8,0.8L11.1,7.9z"/>
	</g>
	<g>
		<g>
			<path class="st0" d="M4.3,8.6L3.1,7.9C5,5,7.8,2.9,11,2l0.4,1.3C8.5,4.2,5.9,6,4.3,8.6z"/>
		</g>
		<g>
			<path class="st0" d="M3,22.8c-0.3-0.5-0.6-1-0.8-1.5l1.3-0.6c0.2,0.5,0.5,0.9,0.7,1.3L3,22.8z"/>
		</g>
		<g>
			<path class="st0" d="M6,26.3c-0.6-0.5-1.1-1-1.6-1.6l1-0.9c0.5,0.5,0.9,1,1.5,1.4L6,26.3z"/>
		</g>
		<g>
			<path class="st0" d="M21.5,27.8l-0.7-1.2c1.1-0.6,2.2-1.4,3.1-2.3l1,1C23.9,26.2,22.8,27.1,21.5,27.8z"/>
		</g>
		<g>
			<path class="st0" d="M28.5,18.6l-1.4-0.3c0.2-0.9,0.3-1.9,0.3-2.8c0-2.2-0.6-4.3-1.6-6.2l1.2-0.7c1.2,2.1,1.8,4.4,1.8,6.8
				C28.9,16.5,28.8,17.6,28.5,18.6z"/>
		</g>
		<g>
			<path class="st0" d="M24.8,7.7c-0.2-0.2-0.4-0.5-0.6-0.7l1-0.9c0.2,0.2,0.4,0.5,0.6,0.7L24.8,7.7z"/>
		</g>
		<g>
			<path class="st0" d="M23.4,6.1c-0.3-0.3-0.7-0.6-1-0.8l0.8-1.1c0.4,0.3,0.8,0.6,1.1,0.9L23.4,6.1z"/>
		</g>
		<g>
			<path class="st0" d="M20.4,4.1c-0.3-0.2-0.6-0.3-1-0.4l0.5-1.3c0.4,0.1,0.7,0.3,1.1,0.5L20.4,4.1z"/>
		</g>
		<g>
			<path class="st0" d="M17.8,3.2c-1-0.2-2-0.4-3-0.4V1.5c1.1,0,2.2,0.1,3.3,0.4L17.8,3.2z"/>
		</g>
	</g>
</g>
</svg>
