<?xml version="1.0" encoding="utf-8"?>
<!-- Generator: Adobe Illustrator 24.2.3, SVG Export Plug-In . SVG Version: 6.00 Build 0)  -->
<svg version="1.1" id="Capa_1" xmlns="http://www.w3.org/2000/svg" xmlns:xlink="http://www.w3.org/1999/xlink" x="0px" y="0px"
	 viewBox="0 0 40 42" style="enable-background:new 0 0 40 42;" xml:space="preserve">
<style type="text/css">
	.st0{fill:#155F8A;}
	.st1{opacity:0.24;}
	.st2{opacity:0.63;fill:#155F8A;}
	.st3{opacity:0.64;fill:#155F8A;}
	.st4{fill:none;}
</style>
<path class="st0" d="M35.4-2L11.2,3c0,0-0.1,0-0.1,0c-0.3,0-0.6-0.2-0.7-0.6c-0.1-0.4,0.2-0.8,0.5-0.8l24.1-5"/>
<g class="st1">
	<path class="st0" d="M7.4,25.7c0,0-0.1,0-0.1,0c-0.4-0.1-0.6-0.4-0.6-0.8l3.7-22.7c0.1-0.4,0.4-0.6,0.8-0.6
		c0.4,0.1,0.6,0.4,0.6,0.8L8.1,25.2C8,25.5,7.7,25.7,7.4,25.7z"/>
</g>
<g class="st1">
	<path class="st0" d="M28.4,38.8c-0.1,0-0.3,0-0.4-0.1L7,25.6c-0.3-0.2-0.4-0.6-0.2-1c0.2-0.3,0.6-0.4,1-0.2l21.1,13
		c0.3,0.2,0.4,0.6,0.2,1C28.9,38.7,28.7,38.8,28.4,38.8z"/>
</g>
<path class="st2" d="M11.1,0.1c1.2,0,2.2,1,2.2,2.2c0,1.2-1,2.2-2.2,2.2c-1.2,0-2.2-1-2.2-2.2C8.8,1.1,9.8,0.1,11.1,0.1z"/>
<ellipse transform="matrix(0.2298 -0.9732 0.9732 0.2298 -18.7069 26.4581)" class="st3" cx="7.4" cy="25" rx="2.3" ry="2.3"/>
<circle class="st3" cx="28.4" cy="38.1" r="2.3"/>
<path class="st2" d="M35.2-0.4c-1.2,0-2.2-1-2.2-2.2c0-1.2,1-2.2,2.2-2.2"/>
<line class="st4" x1="-5.2" y1="3.3" x2="493" y2="3.3"/>
</svg>
