<?xml version="1.0" encoding="utf-8"?>
<!-- Generator: Adobe Illustrator 24.2.3, SVG Export Plug-In . SVG Version: 6.00 Build 0)  -->
<svg version="1.1" id="Capa_1" xmlns="http://www.w3.org/2000/svg" xmlns:xlink="http://www.w3.org/1999/xlink" x="0px" y="0px"
	 viewBox="0 0 54.9 34.5" style="enable-background:new 0 0 54.9 34.5;" xml:space="preserve">
<style type="text/css">
	.st0{enable-background:new    ;}
	.st1{fill:#BABACE;}
	.st2{fill:#CFCFDD;}
	.st3{fill:#DCDCE4;}
	.st4{fill:#ECECF4;}
	.st5{fill:#F8F9F3;}
	.st6{fill:#25252D;}
	.st7{fill:#3D3D4C;}
	.st8{clip-path:url(#SVGID_2_);enable-background:new    ;}
	.st9{fill:#35353F;}
	.st10{fill:#444454;}
	.st11{clip-path:url(#SVGID_4_);}
	.st12{clip-path:url(#SVGID_6_);}
	.st13{fill:#32323D;}
	.st14{fill:#F1F1F1;}
	.st15{clip-path:url(#SVGID_8_);}
	.st16{opacity:0.5;}
	.st17{fill:#3322A1;}
</style>
<g>
	<g>
		<g>
			<g class="st0">
				<g>
					<g>
						<polygon class="st1" points="32.3,15.6 32,16.8 31.3,17.2 31.3,16.2 						"/>
					</g>
				</g>
				<g>
					<g>
						<polygon class="st2" points="31.3,16.2 31.3,17.2 28.9,15.8 28.5,14.6 						"/>
					</g>
				</g>
				<g>
					<g>
						<polygon class="st2" points="32.3,10.2 32.3,15.6 31.3,16.2 31.3,10.8 						"/>
					</g>
				</g>
				<g>
					<g>
						<polygon class="st3" points="31.3,10.8 31.3,16.2 28.5,14.6 28.5,9.2 						"/>
					</g>
				</g>
				<g>
					<g>
						<polygon class="st4" points="31.3,9.4 31.3,10.8 28.5,9.2 28.9,8 						"/>
					</g>
				</g>
				<g>
					<g>
						<polygon class="st2" points="32,9 32.3,10.2 31.3,10.8 31.3,9.4 						"/>
					</g>
				</g>
				<g>
					<g>
						<polygon class="st5" points="31.1,8.1 32,9 31.3,9.4 28.9,8 29.6,7.6 						"/>
					</g>
				</g>
			</g>
		</g>
		<g>
			<g class="st0">
				<g>
					<polygon class="st6" points="27.2,11.8 27.2,11.9 29.7,10.4 29.7,10.3 					"/>
				</g>
				<g>
					<polygon class="st7" points="27.2,11.8 29.7,10.3 29.3,10.1 27.2,11.3 					"/>
				</g>
			</g>
		</g>
		<g>
			<g class="st0">
				<g>
					<polygon class="st6" points="27.2,17 27.2,17.2 29.7,15.7 29.7,15.6 					"/>
				</g>
				<g>
					<polygon class="st7" points="27.2,17 29.7,15.6 29.3,15.3 27.2,16.6 					"/>
				</g>
			</g>
		</g>
		<g>
			<g class="st0">
				<g class="st0">
					<defs>
						<path id="SVGID_1_" class="st0" d="M28.5,30.4l0,1.2c0,0.1-0.1,0.3-0.3,0.4c-0.4,0.2-1,0.2-1.4,0c-0.2-0.1-0.3-0.3-0.3-0.4
							l0-1.2c0,0.1,0.1,0.3,0.3,0.4c0.4,0.2,1,0.2,1.4,0C28.4,30.7,28.5,30.5,28.5,30.4z"/>
					</defs>
					<use xlink:href="#SVGID_1_"  style="overflow:visible;fill:#35353F;"/>
					<clipPath id="SVGID_2_">
						<use xlink:href="#SVGID_1_"  style="overflow:visible;"/>
					</clipPath>
					<g class="st8">
						<g>
							<path class="st9" d="M28.5,30.4l0,1.2c0,0.1-0.1,0.3-0.3,0.4c-0.4,0.2-1,0.2-1.4,0c-0.2-0.1-0.3-0.3-0.3-0.4l0-1.2
								c0,0.1,0.1,0.3,0.3,0.4c0.4,0.2,1,0.2,1.4,0C28.4,30.7,28.5,30.5,28.5,30.4z"/>
						</g>
					</g>
				</g>
				<g>
					<g>
						<path class="st10" d="M28.2,30c0.4,0.2,0.4,0.6,0,0.8c-0.4,0.2-1,0.2-1.4,0c-0.4-0.2-0.4-0.6,0-0.8
							C27.1,29.7,27.8,29.7,28.2,30z"/>
					</g>
				</g>
			</g>
		</g>
		<g>
			<g class="st0">
				<g class="st0">
					<defs>
						<path id="SVGID_3_" class="st0" d="M28.1,21.3l0,9.1c0,0.1-0.1,0.2-0.2,0.3c-0.3,0.2-0.7,0.2-1,0c-0.1-0.1-0.2-0.2-0.2-0.3
							l0-9.1c0,0.1,0.1,0.2,0.2,0.3c0.3,0.2,0.7,0.2,1,0C28.1,21.5,28.1,21.4,28.1,21.3z"/>
					</defs>
					<use xlink:href="#SVGID_3_"  style="overflow:visible;fill:#F8F9F3;"/>
					<clipPath id="SVGID_4_">
						<use xlink:href="#SVGID_3_"  style="overflow:visible;"/>
					</clipPath>
					<g class="st11">
						<g>
							<path class="st2" d="M28.1,21.3l0,9.1c0,0.1-0.1,0.2-0.2,0.3c-0.3,0.2-0.7,0.2-1,0c-0.1-0.1-0.2-0.2-0.2-0.3l0-9.1
								c0,0.1,0.1,0.2,0.2,0.3c0.3,0.2,0.7,0.2,1,0C28.1,21.5,28.1,21.4,28.1,21.3z"/>
						</g>
					</g>
				</g>
				<g>
					<g>
						<path class="st5" d="M27.9,21c0.3,0.2,0.3,0.4,0,0.6c-0.3,0.2-0.7,0.2-1,0c-0.3-0.2-0.3-0.4,0-0.6
							C27.2,20.8,27.7,20.8,27.9,21z"/>
					</g>
				</g>
			</g>
		</g>
		<g>
			<g class="st0">
				<g class="st0">
					<defs>
						<path id="SVGID_5_" class="st0" d="M28,8.5l0,12.8c0,0.1-0.1,0.2-0.2,0.2c-0.2,0.1-0.6,0.1-0.8,0c-0.1-0.1-0.2-0.1-0.2-0.2
							l0-12.8c0,0.1,0.1,0.2,0.2,0.2c0.2,0.1,0.6,0.1,0.8,0C28,8.7,28,8.6,28,8.5z"/>
					</defs>
					<use xlink:href="#SVGID_5_"  style="overflow:visible;fill:#35353F;"/>
					<clipPath id="SVGID_6_">
						<use xlink:href="#SVGID_5_"  style="overflow:visible;"/>
					</clipPath>
					<g class="st12">
						<g>
							<path class="st9" d="M28,8.5l0,12.8c0,0.1-0.1,0.2-0.2,0.2c-0.2,0.1-0.6,0.1-0.8,0c-0.1-0.1-0.2-0.1-0.2-0.2l0-12.8
								c0,0.1,0.1,0.2,0.2,0.2c0.2,0.1,0.6,0.1,0.8,0C28,8.7,28,8.6,28,8.5z"/>
						</g>
					</g>
				</g>
				<g>
					<g>
						<path class="st9" d="M27.8,8.3c0.2,0.1,0.2,0.3,0,0.5c-0.2,0.1-0.6,0.1-0.8,0c-0.2-0.1-0.2-0.3,0-0.5
							C27.3,8.2,27.6,8.2,27.8,8.3z"/>
					</g>
				</g>
			</g>
		</g>
		<g>
			<g class="st0">
				<g>
					<polygon class="st6" points="27.3,11.7 27.3,11.8 23.3,14.2 23.3,14 					"/>
				</g>
				<g>
					<polygon class="st13" points="23.3,14 23.3,14.2 22.9,13.9 22.9,13.8 					"/>
				</g>
				<g>
					<polygon class="st7" points="27.3,11.7 23.3,14 22.9,13.8 26.9,11.5 					"/>
				</g>
			</g>
		</g>
		<g>
			<g class="st0">
				<g>
					<polygon class="st6" points="24.5,18.6 24.5,18.7 27.3,17.1 27.3,16.9 					"/>
				</g>
				<g>
					<polygon class="st7" points="24.5,18.6 27.3,16.9 26.9,16.7 24.5,18.1 					"/>
				</g>
			</g>
		</g>
		<g>
			<g class="st0">
				<g>
					<g>
						<polygon class="st3" points="23.6,19.1 23.7,20.2 22.8,19.4 22.5,18.1 						"/>
					</g>
				</g>
				<g>
					<g>
						<polygon class="st1" points="26.3,19.1 26,20.3 25.2,20.7 25.3,19.7 						"/>
					</g>
				</g>
				<g>
					<g>
						<polygon class="st2" points="25.3,19.7 25.2,20.7 23.7,20.2 23.6,19.1 						"/>
					</g>
				</g>
				<g>
					<g>
						<polygon class="st4" points="23.6,13.7 23.6,19.1 22.5,18.1 22.6,12.7 						"/>
					</g>
				</g>
				<g>
					<g>
						<polygon class="st14" points="23.8,12.4 23.6,13.7 22.6,12.7 22.9,11.5 						"/>
					</g>
				</g>
				<g>
					<g>
						<polygon class="st3" points="25.3,14.3 25.3,19.7 23.6,19.1 23.6,13.7 						"/>
					</g>
				</g>
				<g>
					<g>
						<polygon class="st2" points="26.3,13.7 26.3,19.1 25.3,19.7 25.3,14.3 						"/>
					</g>
				</g>
				<g>
					<g>
						<polygon class="st3" points="26,12.5 26.3,13.7 25.3,14.3 25.3,12.9 						"/>
					</g>
				</g>
				<g>
					<g>
						<polygon class="st5" points="26,12.5 25.3,12.9 23.8,12.4 22.9,11.5 23.6,11.1 						"/>
					</g>
				</g>
				<g>
					<g>
						<polygon class="st4" points="25.3,12.9 25.3,14.3 23.6,13.7 23.8,12.4 						"/>
					</g>
				</g>
			</g>
		</g>
		<g>
			<g class="st0">
				<g class="st0">
					<defs>
						<path id="SVGID_7_" class="st0" d="M28.1,7.7l0,1.2c0,0.1-0.1,0.2-0.2,0.3c-0.3,0.2-0.7,0.2-0.9,0c-0.1-0.1-0.2-0.2-0.2-0.3
							l0-1.2c0,0.1,0.1,0.2,0.2,0.3c0.3,0.2,0.7,0.2,0.9,0C28,7.9,28.1,7.8,28.1,7.7z"/>
					</defs>
					<use xlink:href="#SVGID_7_"  style="overflow:visible;fill:#ECECF4;"/>
					<clipPath id="SVGID_8_">
						<use xlink:href="#SVGID_7_"  style="overflow:visible;"/>
					</clipPath>
					<g class="st15">
						<g>
							<path class="st4" d="M28.1,7.7l0,1.2c0,0.1-0.1,0.2-0.2,0.3c-0.3,0.2-0.7,0.2-0.9,0c-0.1-0.1-0.2-0.2-0.2-0.3l0-1.2
								c0,0.1,0.1,0.2,0.2,0.3c0.3,0.2,0.7,0.2,0.9,0C28,7.9,28.1,7.8,28.1,7.7z"/>
						</g>
					</g>
				</g>
				<g>
					<g>
						<path class="st5" d="M27.9,7.4c0.3,0.2,0.3,0.4,0,0.5c-0.3,0.2-0.7,0.2-0.9,0c-0.3-0.2-0.3-0.4,0-0.5
							C27.2,7.3,27.7,7.3,27.9,7.4z"/>
					</g>
				</g>
			</g>
		</g>
	</g>
	<g class="st16">
		<path class="st17" d="M27.5,9.8c-0.7,0-1.4-0.2-2-0.5c-0.5-0.3-0.8-0.7-0.8-1.2s0.3-0.9,0.8-1.2c1.1-0.6,2.9-0.6,4,0
			c0.5,0.3,0.8,0.7,0.8,1.2S30,9,29.5,9.3C28.9,9.6,28.2,9.8,27.5,9.8z M27.5,6.5c-0.7,0-1.4,0.2-2,0.5c-0.5,0.3-0.8,0.7-0.8,1.1
			c0,0.4,0.3,0.8,0.8,1.1c1.1,0.6,2.8,0.6,3.9,0c0.5-0.3,0.8-0.7,0.8-1.1c0-0.4-0.3-0.8-0.8-1.1C28.9,6.7,28.2,6.5,27.5,6.5z"/>
		<path class="st17" d="M27.5,11.4c-1.5,0-2.9-0.3-4-1c-1.1-0.6-1.7-1.5-1.7-2.3c0-0.9,0.6-1.7,1.7-2.3c2.2-1.3,5.8-1.3,8,0
			c1.1,0.6,1.7,1.5,1.7,2.3c0,0.9-0.6,1.7-1.7,2.3C30.4,11.1,28.9,11.4,27.5,11.4z M27.5,4.9c-1.4,0-2.9,0.3-4,0.9
			c-1.1,0.6-1.6,1.4-1.6,2.3c0,0.9,0.6,1.7,1.6,2.3c2.2,1.3,5.8,1.3,7.9,0c1.1-0.6,1.6-1.4,1.6-2.3c0-0.9-0.6-1.7-1.6-2.3
			C30.3,5.2,28.9,4.9,27.5,4.9z"/>
		<path class="st17" d="M27.5,13c-2.2,0-4.3-0.5-5.9-1.4c-1.6-0.9-2.5-2.1-2.5-3.5c0-1.3,0.9-2.5,2.5-3.5c3.3-1.9,8.6-1.9,11.9,0
			c1.6,0.9,2.5,2.1,2.5,3.5c0,1.3-0.9,2.5-2.5,3.5C31.8,12.5,29.6,13,27.5,13z M27.5,3.3c-2.1,0-4.3,0.5-5.9,1.4
			c-1.6,0.9-2.4,2.1-2.4,3.4c0,1.3,0.9,2.5,2.4,3.4c3.3,1.9,8.6,1.9,11.8,0c1.6-0.9,2.4-2.1,2.4-3.4c0-1.3-0.9-2.5-2.4-3.4
			C31.7,3.8,29.6,3.3,27.5,3.3z"/>
	</g>
</g>
</svg>
