<?xml version="1.0" encoding="utf-8"?>
<!-- Generator: Adobe Illustrator 24.2.3, SVG Export Plug-In . SVG Version: 6.00 Build 0)  -->
<svg version="1.1" id="Capa_1" xmlns="http://www.w3.org/2000/svg" xmlns:xlink="http://www.w3.org/1999/xlink" x="0px" y="0px"
	 viewBox="0 0 41.6 41.6" style="enable-background:new 0 0 41.6 41.6;" xml:space="preserve">
<style type="text/css">
	.st0{opacity:0.5;}
	.st1{fill:#9B9B9B;}
</style>
<g class="st0">
	<path class="st1" d="M20.4,23.8c-1.5,0-3-0.3-4.2-1c-1.1-0.7-1.8-1.5-1.8-2.5s0.6-1.8,1.8-2.5c2.3-1.3,6.1-1.3,8.4,0
		c1.1,0.7,1.8,1.5,1.8,2.5s-0.6,1.8-1.8,2.5C23.4,23.5,21.9,23.8,20.4,23.8z M20.4,17.1c-1.5,0-3,0.3-4.1,1
		c-1.1,0.6-1.7,1.5-1.7,2.3s0.6,1.7,1.7,2.3c2.3,1.3,6,1.3,8.2,0c1.1-0.6,1.7-1.5,1.7-2.3s-0.6-1.7-1.7-2.3
		C23.4,17.4,21.9,17.1,20.4,17.1z"/>
	<path class="st1" d="M20.4,27.3c-3.1,0-6.1-0.7-8.4-2c-2.3-1.3-3.5-3.1-3.5-4.9c0-1.9,1.2-3.6,3.5-4.9c4.6-2.7,12.2-2.7,16.9,0
		c2.3,1.3,3.5,3.1,3.5,4.9c0,1.9-1.2,3.6-3.5,4.9C26.5,26.6,23.5,27.3,20.4,27.3z M20.4,13.6c-3,0-6,0.7-8.4,2
		c-2.2,1.3-3.4,3-3.4,4.8c0,1.8,1.2,3.5,3.4,4.8c4.6,2.7,12.1,2.7,16.7,0c2.2-1.3,3.4-3,3.4-4.8c0-1.8-1.2-3.5-3.4-4.8
		C26.5,14.3,23.4,13.6,20.4,13.6z"/>
	<path class="st1" d="M20.4,30.6c-4.5,0-9.1-1-12.5-3c-3.4-1.9-5.2-4.5-5.2-7.3c0-2.7,1.8-5.3,5.2-7.3c6.9-4,18.1-4,25,0
		c3.4,1.9,5.2,4.5,5.2,7.3c0,2.7-1.8,5.3-5.2,7.3C29.5,29.6,24.9,30.6,20.4,30.6z M20.4,10.3c-4.5,0-9,1-12.4,3
		c-3.3,1.9-5.1,4.4-5.1,7.1c0,2.7,1.8,5.2,5.1,7.1c6.9,4,18,4,24.9,0c3.3-1.9,5.1-4.4,5.1-7.1c0-2.7-1.8-5.2-5.1-7.1
		C29.4,11.3,24.9,10.3,20.4,10.3z"/>
</g>
</svg>
