<?xml version="1.0" encoding="utf-8"?>
<!-- Generator: Adobe Illustrator 24.2.3, SVG Export Plug-In . SVG Version: 6.00 Build 0)  -->
<svg version="1.1" id="Capa_1" xmlns="http://www.w3.org/2000/svg" xmlns:xlink="http://www.w3.org/1999/xlink" x="0px" y="0px"
	 viewBox="0 0 54.9 34.5" style="enable-background:new 0 0 54.9 34.5;" xml:space="preserve">
<style type="text/css">
	.st0{fill:#6AB32D;}
</style>
<g>
	<g>
		<path class="st0" d="M27.5,12.3c-1.6-0.3-3.4,1.7-3.9,4.5c-0.5,2.8,0.4,5.2,2.1,5.5c1.6,0.3,3.4-1.7,3.9-4.5
			C30.1,15.1,29.2,12.6,27.5,12.3z"/>
	</g>
	<g>
		<path class="st0" d="M27.5,0.8C18.4,0.8,11,8.2,11,17.2c0,9.1,7.4,16.4,16.4,16.4c9.1,0,16.4-7.4,16.4-16.4
			C43.9,8.2,36.5,0.8,27.5,0.8z M37.7,24c-1.9,1.4-3.6,1.1-3.6,1.1c-0.5-0.1-0.9-0.2-1.4-0.4c-0.3-0.1-0.5-0.2-0.7-0.4
			c-0.8-0.6-1.1-1.3-1.1-2l0,0l0-0.1c0-0.1,0-0.2,0-0.2c-1.4,1.7-3.3,2.6-5.3,2.2c-3.2-0.6-5.2-4.1-4.5-7.9s3.8-6.4,7-5.8
			c1.9,0.3,3.4,1.8,4.2,3.8l0.5-3l2.1,0.4l-1.6,9.9c0.1,0.4,0.3,0.8,0.7,1.1c0.9,0.5,2.3,0.2,3-1c0,0,0-0.1,0-0.1
			c0.1-0.1,0.1-0.2,0.2-0.3c0.5-1.2,0.8-2.5,0.8-3.9C37.7,11.6,33.1,7,27.5,7c-5.7,0-10.3,4.6-10.3,10.3c0,5.7,4.6,10.3,10.3,10.3
			c1.8,0,3.4-0.5,4.9-1.2l1.6,2.2c-1.9,1.1-4.1,1.7-6.5,1.7c-7.1,0-12.9-5.8-12.9-12.9c0-7.1,5.8-12.9,12.9-12.9
			c7.1,0,12.9,5.7,12.9,12.8C40.4,21.4,38.5,23.4,37.7,24z"/>
	</g>
</g>
</svg>
