<?xml version="1.0" encoding="utf-8"?>
<!-- Generator: Adobe Illustrator 24.2.3, SVG Export Plug-In . SVG Version: 6.00 Build 0)  -->
<svg version="1.1" id="Capa_1" xmlns="http://www.w3.org/2000/svg" xmlns:xlink="http://www.w3.org/1999/xlink" x="0px" y="0px"
	 viewBox="0 0 27.2 27.2" style="enable-background:new 0 0 27.2 27.2;" xml:space="preserve">
<style type="text/css">
	.st0{fill:#7DB7C9;}
	.st1{opacity:0.5;}
	.st2{fill:#6AB32D;}
	.st3{fill:#A5A6A9;}
</style>
<g>
	<g>
		<g>
			<ellipse class="st0" cx="7.4" cy="13.8" rx="3.2" ry="3.2"/>
		</g>
		<g class="st1">
			<path class="st2" d="M7.4,17c-1.7,0-3.2-1.4-3.2-3.2s1.4-3.2,3.2-3.2V17z"/>
		</g>
	</g>
	<g>
		<g>
			<ellipse class="st3" cx="16.3" cy="7.7" rx="2.8" ry="2.8"/>
		</g>
		<g class="st1">
			<path class="st2" d="M16.2,10.6c-1.6,0-2.8-1.3-2.8-2.8s1.3-2.8,2.8-2.8V10.6z"/>
		</g>
	</g>
	<g>
		<g>
			<path class="st3" d="M13.5,19.5c0-1.6,1.3-2.8,2.8-2.8s2.8,1.3,2.8,2.8s-1.3,2.8-2.8,2.8S13.5,21,13.5,19.5z"/>
		</g>
		<g class="st1">
			<path class="st2" d="M16.4,22.3c-1.6,0-2.8-1.3-2.8-2.8s1.3-2.8,2.8-2.8V22.3z"/>
		</g>
	</g>
</g>
</svg>
