<?xml version="1.0" encoding="utf-8"?>
<!-- Generator: Adobe Illustrator 24.2.3, SVG Export Plug-In . SVG Version: 6.00 Build 0)  -->
<svg version="1.1" id="Capa_1" xmlns="http://www.w3.org/2000/svg" xmlns:xlink="http://www.w3.org/1999/xlink" x="0px" y="0px"
	 viewBox="0 0 70 90" style="enable-background:new 0 0 70 90;" xml:space="preserve">
<style type="text/css">
	.st0{fill:#6AB32D;}
</style>
<g>
	<rect x="35" y="15" class="st0" width="0.2" height="44.7"/>
	<polygon class="st0" points="20.4,55.1 20.2,55.1 20.2,30.9 14.8,21.7 14.8,4.5 15.1,4.5 15.1,21.6 20.4,30.9 	"/>
	<polygon class="st0" points="38.3,59.3 38.1,59.3 38.1,46.7 42.9,43.9 42.9,19.6 43.1,19.6 43.1,44 38.3,46.8 	"/>
	<polygon class="st0" points="27.2,59 27,59 27,35.8 21.3,26 21.3,8.7 21.6,8.7 21.6,25.9 27.2,35.7 	"/>
	<polygon class="st0" points="46.1,58.5 45.9,58.5 45.9,47.5 52,44 52,25.6 52.2,25.6 52.2,44.1 46.1,47.7 	"/>
	<rect x="42.7" y="31.6" transform="matrix(0.8659 -0.5003 0.5003 0.8659 -9.8447 26.6855)" class="st0" width="4.2" height="0.2"/>
	<polygon class="st0" points="35.2,37.5 35.1,37.3 39.6,34.6 39.6,16.4 39.9,16.4 39.9,34.8 	"/>
	
		<rect x="51.8" y="36.3" transform="matrix(0.8663 -0.4995 0.4995 0.8663 -10.9519 31.9742)" class="st0" width="4.9" height="0.2"/>
	<rect x="51.8" y="28.5" transform="matrix(0.8663 -0.4995 0.4995 0.8663 -7.0443 30.8829)" class="st0" width="4.7" height="0.2"/>
	<rect x="17.6" y="26.1" transform="matrix(0.866 -0.5 0.5 0.866 -13.1798 13.047)" class="st0" width="0.2" height="10"/>
	<rect x="19.1" y="14.1" transform="matrix(0.866 -0.5 0.5 0.866 -6.7225 12.0804)" class="st0" width="0.2" height="9"/>
	<path class="st0" d="M57,35.8c-0.1,0-0.2,0-0.3-0.1c-0.3-0.2-0.6-0.7-0.6-1c0-0.2,0.1-0.4,0.2-0.5c0.1-0.1,0.3-0.1,0.5,0
		c0.3,0.2,0.6,0.7,0.6,1c0,0.2-0.1,0.4-0.2,0.5C57.1,35.8,57,35.8,57,35.8z M56.5,34.4C56.5,34.4,56.4,34.5,56.5,34.4
		c-0.1,0.1-0.2,0.1-0.2,0.3c0,0.3,0.2,0.7,0.5,0.8c0.1,0.1,0.2,0.1,0.3,0c0.1,0,0.1-0.1,0.1-0.2c0-0.3-0.2-0.7-0.5-0.8
		C56.6,34.5,56.5,34.4,56.5,34.4z"/>
	<path class="st0" d="M56.8,28c-0.1,0-0.2,0-0.3-0.1c-0.3-0.2-0.6-0.7-0.6-1c0-0.2,0.1-0.4,0.2-0.5c0.1-0.1,0.3-0.1,0.5,0
		c0.3,0.2,0.6,0.7,0.6,1c0,0.2-0.1,0.4-0.2,0.5C56.9,28,56.9,28,56.8,28z M56.3,26.7C56.3,26.7,56.3,26.7,56.3,26.7
		c-0.1,0.1-0.2,0.1-0.2,0.3c0,0.3,0.2,0.7,0.5,0.8c0.1,0.1,0.2,0.1,0.3,0c0.1,0,0.1-0.1,0.1-0.2c0-0.3-0.2-0.7-0.5-0.8
		C56.4,26.7,56.4,26.7,56.3,26.7z"/>
	<path class="st0" d="M47.3,31.3c-0.1,0-0.2,0-0.3-0.1c-0.3-0.2-0.6-0.7-0.6-1c0-0.2,0.1-0.4,0.2-0.5c0.1-0.1,0.3-0.1,0.5,0
		c0.3,0.2,0.6,0.7,0.6,1c0,0.2-0.1,0.4-0.2,0.5C47.4,31.3,47.3,31.3,47.3,31.3z M46.8,29.9C46.7,29.9,46.7,29.9,46.8,29.9
		c-0.1,0.1-0.2,0.1-0.2,0.3c0,0.3,0.2,0.7,0.5,0.8c0.1,0.1,0.2,0.1,0.3,0c0.1,0,0.1-0.1,0.1-0.2c0-0.3-0.2-0.7-0.5-0.8
		C46.9,29.9,46.8,29.9,46.8,29.9z"/>
	
		<rect x="42.7" y="37.5" transform="matrix(0.8662 -0.4998 0.4998 0.8662 -12.8091 27.4485)" class="st0" width="4.2" height="0.2"/>
	<path class="st0" d="M46.5,36.1c0,0.3,0.2,0.8,0.5,0.9c0.3,0.2,0.5,0,0.5-0.3c0-0.3-0.2-0.8-0.5-0.9C46.7,35.6,46.5,35.7,46.5,36.1
		z"/>
	<path class="st0" d="M40,16.6c-0.1,0-0.2,0-0.3-0.1c-0.3-0.2-0.6-0.7-0.6-1c0-0.2,0.1-0.4,0.2-0.5c0.1-0.1,0.3-0.1,0.5,0
		c0.3,0.2,0.6,0.7,0.6,1c0,0.2-0.1,0.4-0.2,0.5C40.1,16.6,40.1,16.6,40,16.6z M39.5,15.2C39.5,15.2,39.5,15.2,39.5,15.2
		c-0.1,0.1-0.2,0.1-0.2,0.3c0,0.3,0.2,0.7,0.5,0.8c0.1,0.1,0.2,0.1,0.3,0c0.1,0,0.1-0.1,0.1-0.2c0-0.3-0.2-0.7-0.5-0.8
		C39.6,15.2,39.6,15.2,39.5,15.2z"/>
	<path class="st0" d="M35.4,15.2c-0.1,0-0.2,0-0.3-0.1c-0.3-0.2-0.6-0.7-0.6-1c0-0.2,0.1-0.4,0.2-0.5c0.1-0.1,0.3-0.1,0.5,0
		c0.3,0.2,0.6,0.7,0.6,1c0,0.2-0.1,0.4-0.2,0.5C35.5,15.2,35.5,15.2,35.4,15.2z M34.9,13.8C34.9,13.8,34.9,13.8,34.9,13.8
		c-0.1,0.1-0.2,0.1-0.2,0.3c0,0.3,0.2,0.7,0.5,0.8c0.1,0.1,0.2,0.1,0.3,0c0.1,0,0.1-0.1,0.1-0.2c0-0.3-0.2-0.7-0.5-0.8
		C35,13.9,35,13.8,34.9,13.8z"/>
	<rect x="59.1" y="28.9" class="st0" width="0.2" height="44.7"/>
	<polygon class="st0" points="59.3,51.4 59.2,51.2 63.7,48.5 63.7,30.3 64,30.3 64,48.7 	"/>
	<path class="st0" d="M64.1,30.5c-0.1,0-0.2,0-0.3-0.1c-0.3-0.2-0.6-0.7-0.6-1c0-0.2,0.1-0.4,0.2-0.5c0.1-0.1,0.3-0.1,0.5,0
		c0.3,0.2,0.6,0.7,0.6,1c0,0.2-0.1,0.4-0.2,0.5C64.2,30.5,64.2,30.5,64.1,30.5z M63.6,29.1C63.6,29.1,63.6,29.1,63.6,29.1
		c-0.1,0.1-0.2,0.1-0.2,0.3c0,0.3,0.2,0.7,0.5,0.8c0.1,0.1,0.2,0.1,0.3,0c0.1,0,0.1-0.1,0.1-0.2c0-0.3-0.2-0.7-0.5-0.8
		C63.7,29.1,63.7,29.1,63.6,29.1z"/>
	<path class="st0" d="M59.5,29.1c-0.1,0-0.2,0-0.3-0.1c-0.3-0.2-0.6-0.7-0.6-1c0-0.2,0.1-0.4,0.2-0.5c0.1-0.1,0.3-0.1,0.5,0
		c0.3,0.2,0.6,0.7,0.6,1c0,0.2-0.1,0.4-0.2,0.5C59.6,29.1,59.6,29.1,59.5,29.1z M59,27.7C59,27.7,58.9,27.7,59,27.7
		c-0.1,0.1-0.2,0.1-0.2,0.3c0,0.3,0.2,0.7,0.5,0.8c0.1,0.1,0.2,0.1,0.3,0c0.1,0,0.1-0.1,0.1-0.2c0-0.3-0.2-0.7-0.5-0.8
		C59.1,27.8,59,27.7,59,27.7z"/>
	<path class="st0" d="M15.1,27c-0.1,0-0.2,0-0.3-0.1c-0.3-0.2-0.6-0.7-0.6-1c0-0.2,0.1-0.4,0.2-0.5c0.1-0.1,0.3-0.1,0.5,0
		c0.3,0.2,0.6,0.7,0.6,1c0,0.2-0.1,0.4-0.2,0.5C15.3,26.9,15.2,27,15.1,27z M14.6,25.6C14.6,25.6,14.6,25.6,14.6,25.6
		c-0.1,0.1-0.2,0.1-0.2,0.3c0,0.3,0.2,0.7,0.5,0.8c0.1,0.1,0.2,0.1,0.3,0c0.1,0,0.1-0.1,0.1-0.2c0-0.3-0.2-0.7-0.5-0.8
		C14.8,25.6,14.7,25.6,14.6,25.6z"/>
	<path class="st0" d="M15.2,4.7c-0.1,0-0.2,0-0.3-0.1c-0.3-0.2-0.6-0.7-0.6-1c0-0.2,0.1-0.4,0.2-0.5C14.6,3,14.8,3,15,3.1
		c0.3,0.2,0.6,0.7,0.6,1c0,0.2-0.1,0.4-0.2,0.5C15.3,4.7,15.2,4.7,15.2,4.7z M14.7,3.3C14.7,3.3,14.6,3.3,14.7,3.3
		c-0.1,0.1-0.2,0.1-0.2,0.3c0,0.3,0.2,0.7,0.5,0.8c0.1,0.1,0.2,0.1,0.3,0c0.1,0,0.1-0.1,0.1-0.2c0-0.3-0.2-0.7-0.5-0.8
		C14.8,3.3,14.7,3.3,14.7,3.3z"/>
	<path class="st0" d="M51.6,24.7c0,0.3,0.2,0.8,0.5,0.9c0.3,0.2,0.5,0,0.5-0.3c0-0.3-0.2-0.8-0.5-0.9C51.8,24.2,51.6,24.4,51.6,24.7
		z"/>
	<path class="st0" d="M42.5,19.3c0,0.3,0.2,0.8,0.5,0.9c0.3,0.2,0.5,0,0.5-0.3c0-0.3-0.2-0.8-0.5-0.9C42.7,18.8,42.5,18.9,42.5,19.3
		z"/>
	<g>
		<rect x="30.4" y="12.4" class="st0" width="0.2" height="44.7"/>
		<rect x="27.8" y="19" transform="matrix(0.866 -0.5 0.5 0.866 -8.4201 17.2132)" class="st0" width="0.2" height="10.6"/>
		<path class="st0" d="M25.2,20c-0.1,0-0.2,0-0.3-0.1c-0.3-0.2-0.6-0.7-0.6-1c0-0.2,0.1-0.4,0.2-0.5c0.1-0.1,0.3-0.1,0.5,0
			c0.3,0.2,0.6,0.7,0.6,1c0,0.2-0.1,0.4-0.2,0.5C25.3,20,25.3,20,25.2,20z M24.7,18.6C24.7,18.6,24.7,18.6,24.7,18.6
			c-0.1,0.1-0.2,0.1-0.2,0.3c0,0.3,0.2,0.7,0.5,0.8c0.1,0.1,0.2,0.1,0.3,0c0.1,0,0.1-0.1,0.1-0.2c0-0.3-0.2-0.7-0.5-0.8
			C24.8,18.6,24.8,18.6,24.7,18.6z"/>
		<path class="st0" d="M30,11.4c0,0.3,0.2,0.8,0.5,0.9c0.3,0.2,0.5,0,0.5-0.3c0-0.3-0.2-0.8-0.5-0.9C30.3,11,30,11.1,30,11.4z"/>
	</g>
	<g>
		<rect x="12.1" y="16.1" class="st0" width="0.2" height="44.7"/>
		<path class="st0" d="M11.7,15.5c0,0.3,0.2,0.8,0.5,0.9c0.3,0.2,0.5,0,0.5-0.3c0-0.3-0.2-0.8-0.5-0.9C11.9,15,11.7,15.1,11.7,15.5z
			"/>
	</g>
	<g>
		<rect x="55" y="42.5" class="st0" width="0.2" height="44.7"/>
		<path class="st0" d="M54.6,41.6c0,0.3,0.2,0.8,0.5,0.9c0.3,0.2,0.5,0,0.5-0.3c0-0.3-0.2-0.8-0.5-0.9
			C54.9,41.1,54.6,41.3,54.6,41.6z"/>
	</g>
	<g>
		<rect x="9.5" y="7.8" class="st0" width="0.2" height="44.7"/>
		<rect x="6.8" y="14.4" transform="matrix(0.866 -0.5 0.5 0.866 -8.9395 6.1313)" class="st0" width="0.2" height="10.6"/>
		<path class="st0" d="M4.3,15.4c-0.1,0-0.2,0-0.3-0.1c-0.3-0.2-0.6-0.7-0.6-1c0-0.2,0.1-0.4,0.2-0.5c0.1-0.1,0.3-0.1,0.5,0
			c0.3,0.2,0.6,0.7,0.6,1c0,0.2-0.1,0.4-0.2,0.5C4.4,15.4,4.3,15.4,4.3,15.4z M3.8,14.1C3.7,14.1,3.7,14.1,3.8,14.1
			c-0.1,0.1-0.2,0.1-0.2,0.3c0,0.3,0.2,0.7,0.5,0.8c0.1,0.1,0.2,0.1,0.3,0c0.1,0,0.1-0.1,0.1-0.2c0-0.3-0.2-0.7-0.5-0.8
			C3.9,14.1,3.8,14.1,3.8,14.1z"/>
		<path class="st0" d="M9.1,7.1c0,0.3,0.2,0.8,0.5,0.9c0.3,0.2,0.5,0,0.5-0.3c0-0.3-0.2-0.8-0.5-0.9C9.3,6.7,9.1,6.8,9.1,7.1z"/>
	</g>
	<path class="st0" d="M16.3,14.2c0,0.3,0.2,0.8,0.5,0.9c0.3,0.2,0.5,0,0.5-0.3c0-0.3-0.2-0.8-0.5-0.9C16.5,13.7,16.3,13.9,16.3,14.2
		z"/>
	<path class="st0" d="M20.9,8.4c0,0.3,0.2,0.8,0.5,0.9C21.7,9.5,22,9.4,22,9c0-0.3-0.2-0.8-0.5-0.9C21.1,7.9,20.9,8,20.9,8.4z"/>
</g>
</svg>
